<svg xmlns="http://www.w3.org/2000/svg" width="56.533" height="50.389" viewBox="0 0 56.533 50.389">
  <g id="Grupo_38" data-name="Grupo 38" transform="translate(-485.392 -205.396)">
    <path id="Trazado_2971" data-name="Trazado 2971" d="M536.679,255.785H490.638a5.242,5.242,0,0,1-4.538-7.857l23.021-39.914a5.242,5.242,0,0,1,9.076,0l23.021,39.914a5.242,5.242,0,0,1-4.538,7.857Zm-23.021-49.122a3.928,3.928,0,0,0-3.439,1.984L487.2,248.562a3.974,3.974,0,0,0,3.44,5.956h46.041a3.974,3.974,0,0,0,3.44-5.956L517.1,208.647A3.929,3.929,0,0,0,513.658,206.664Zm0,43.424a5.047,5.047,0,1,1,5.047-5.047A5.053,5.053,0,0,1,513.659,250.087Zm0-8.827a3.78,3.78,0,1,0,3.779,3.779A3.784,3.784,0,0,0,513.659,241.261Zm2.328-3.628H511.33a1.785,1.785,0,0,1-1.782-1.688l-.712-13.048a1.785,1.785,0,0,1,1.782-1.882H516.7a1.786,1.786,0,0,1,1.783,1.882l-.712,13.048A1.785,1.785,0,0,1,515.987,237.632Zm-5.369-15.351a.518.518,0,0,0-.517.546l.712,13.048a.517.517,0,0,0,.516.489h4.658a.517.517,0,0,0,.516-.489l.712-13.048a.517.517,0,0,0-.517-.546Z" fill="#fff"/>
  </g>
</svg>
