<svg xmlns="http://www.w3.org/2000/svg" width="49" height="49" viewBox="0 0 49 49">
  <g id="Grupo_25" data-name="Grupo 25" transform="translate(-628 -445)">
    <g id="Iconly_Light-outline_Profile" data-name="Iconly/Light-outline/Profile" transform="translate(638.675 452.117)">
      <g id="Profile" transform="translate(0)">
        <path id="Profile-2" data-name="Profile" d="M10.888,32.557c-.2,0-.336,0-.464,0l-.235-.009a3.611,3.611,0,0,1-.658-.076,25.116,25.116,0,0,1-3.8-.552l-.417-.088c-2.526-.559-4.114-1.575-4.852-3.1A4.788,4.788,0,0,1,0,26.685a4.69,4.69,0,0,1,.468-2.061C1.23,23.095,3.037,22,5.693,21.448a27.306,27.306,0,0,1,3.815-.54c1.171-.1,2.362-.154,3.539-.154s2.367.051,3.539.154l.751.063a28.08,28.08,0,0,1,3.054.476c2.817.58,4.482,1.6,5.243,3.2a4.749,4.749,0,0,1,0,4.083c-.756,1.6-2.466,2.636-5.224,3.179l-.763.159a25.627,25.627,0,0,1-3.066.4c-1.167.1-2.351.15-3.52.15C12.333,32.616,11.6,32.6,10.888,32.557Zm-1.2-9.3a25.324,25.324,0,0,0-3.517.5c-1.846.38-3.189,1.092-3.6,1.905a2.311,2.311,0,0,0-.227,1.017A2.367,2.367,0,0,0,2.577,27.7c.415.86,1.672,1.516,3.633,1.9l.575.122a25.29,25.29,0,0,0,3.056.407,3,3,0,0,0,.468.054l.641.01c.7.038,1.412.057,2.114.057,1.105,0,2.228-.047,3.338-.142a23.392,23.392,0,0,0,3.525-.514l.367-.078c1.73-.392,2.843-1.017,3.217-1.807a2.385,2.385,0,0,0,0-2.053c-.4-.841-1.644-1.5-3.6-1.9a25.4,25.4,0,0,0-3.509-.495l-.021,0c-1.1-.1-2.219-.145-3.323-.145S10.808,23.164,9.691,23.262ZM4.39,8.7a8.664,8.664,0,1,1,8.664,8.7A8.692,8.692,0,0,1,4.39,8.7Zm2.351,0a6.313,6.313,0,1,0,6.313-6.339A6.332,6.332,0,0,0,6.741,8.7Z" transform="translate(0)" fill="#fff"/>
      </g>
    </g>
    <g id="Elipse_10" data-name="Elipse 10" transform="translate(628 445)" fill="none" stroke="#fff" stroke-width="1">
      <circle cx="24.5" cy="24.5" r="24.5" stroke="none"/>
      <circle cx="24.5" cy="24.5" r="24" fill="none"/>
    </g>
  </g>
</svg>
