<svg xmlns="http://www.w3.org/2000/svg" width="23" height="23" viewBox="0 0 23 23">
  <g id="Grupo_23" data-name="Grupo 23" transform="translate(-628 -445)">
    <g id="Iconly_Light-outline_Profile" data-name="Iconly/Light-outline/Profile" transform="translate(633.063 448.375)">
      <g id="Profile">
        <path id="Profile-2" data-name="Profile" d="M5.163,15.439l-.22,0-.111,0A1.712,1.712,0,0,1,4.52,15.4a11.911,11.911,0,0,1-1.8-.262l-.2-.042a3.063,3.063,0,0,1-2.3-1.471A2.271,2.271,0,0,1,0,12.655a2.224,2.224,0,0,1,.222-.977A3.352,3.352,0,0,1,2.7,10.171a12.949,12.949,0,0,1,1.809-.256c.555-.049,1.12-.073,1.678-.073s1.123.024,1.678.073l.356.03a13.316,13.316,0,0,1,1.448.226,3.179,3.179,0,0,1,2.486,1.517,2.252,2.252,0,0,1,0,1.936,3.164,3.164,0,0,1-2.477,1.508l-.362.075a12.153,12.153,0,0,1-1.454.189c-.553.047-1.115.071-1.669.071C5.849,15.467,5.5,15.458,5.163,15.439ZM4.6,11.031a12.009,12.009,0,0,0-1.668.236,2.482,2.482,0,0,0-1.705.9,1.1,1.1,0,0,0-.108.482,1.123,1.123,0,0,0,.107.485c.2.408.793.719,1.723.9l.273.058a11.993,11.993,0,0,0,1.449.193,1.423,1.423,0,0,0,.222.026l.3,0c.332.018.67.027,1,.027.524,0,1.057-.022,1.583-.068a11.093,11.093,0,0,0,1.672-.244L9.624,14c.821-.186,1.348-.482,1.526-.857a1.131,1.131,0,0,0,0-.974c-.189-.4-.78-.711-1.708-.9a12.046,12.046,0,0,0-1.664-.235h-.01c-.522-.046-1.052-.069-1.576-.069S5.126,10.985,4.6,11.031ZM2.082,4.126A4.109,4.109,0,1,1,6.191,8.252,4.122,4.122,0,0,1,2.082,4.126Zm1.115,0A2.994,2.994,0,1,0,6.191,1.12,3,3,0,0,0,3.2,4.126Z" transform="translate(0)" fill="#063353"/>
      </g>
    </g>
    <g id="Elipse_10" data-name="Elipse 10" transform="translate(628 445)" fill="none" stroke="#053251" stroke-width="1">
      <circle cx="11.5" cy="11.5" r="11.5" stroke="none"/>
      <circle cx="11.5" cy="11.5" r="11" fill="none"/>
    </g>
  </g>
</svg>
