<svg xmlns="http://www.w3.org/2000/svg" width="20" height="20" viewBox="0 0 20 20">
  <g id="Grupo_37" data-name="Grupo 37" transform="translate(-1090 -289)">
    <g id="Iconly_Light-outline_Profile" data-name="Iconly/Light-outline/Profile" transform="translate(1090.5 290)">
      <g id="Profile" transform="translate(4 2)">
        <path id="Profile-2" data-name="Profile" d="M4.59,13.724l-.2,0-.1,0a1.522,1.522,0,0,1-.277-.032,10.587,10.587,0,0,1-1.6-.233l-.176-.037A2.723,2.723,0,0,1,.193,12.109,2.018,2.018,0,0,1,0,11.249a1.977,1.977,0,0,1,.2-.869A2.979,2.979,0,0,1,2.4,9.041a11.51,11.51,0,0,1,1.608-.228C4.5,8.77,5,8.748,5.5,8.748s1,.022,1.492.065l.317.027a11.837,11.837,0,0,1,1.288.2,2.826,2.826,0,0,1,2.21,1.349,2,2,0,0,1,0,1.721,2.813,2.813,0,0,1-2.2,1.34l-.322.067a10.8,10.8,0,0,1-1.292.168c-.492.042-.991.063-1.484.063C5.2,13.749,4.89,13.741,4.59,13.724Zm-.5-3.918a10.675,10.675,0,0,0-1.482.21,2.207,2.207,0,0,0-1.516.8.974.974,0,0,0-.1.429,1,1,0,0,0,.1.431c.175.363.7.639,1.531.8l.243.051a10.66,10.66,0,0,0,1.288.171,1.265,1.265,0,0,0,.2.023l.27,0c.3.016.6.024.891.024.466,0,.939-.02,1.407-.06A9.861,9.861,0,0,0,8.4,12.477l.155-.033c.729-.165,1.2-.429,1.356-.762a1,1,0,0,0,0-.866c-.168-.355-.693-.632-1.518-.8a10.707,10.707,0,0,0-1.479-.209H6.9c-.464-.041-.935-.061-1.4-.061S4.556,9.764,4.085,9.806ZM1.851,3.668A3.652,3.652,0,1,1,5.5,7.335,3.664,3.664,0,0,1,1.851,3.668Zm.991,0A2.661,2.661,0,1,0,5.5,1,2.669,2.669,0,0,0,2.842,3.668Z" transform="translate(0)" fill="#11b02a"/>
      </g>
    </g>
    <g id="Elipse_2" data-name="Elipse 2" transform="translate(1090 289)" fill="none" stroke="#11b02a" stroke-width="1">
      <circle cx="10" cy="10" r="10" stroke="none"/>
      <circle cx="10" cy="10" r="9.5" fill="none"/>
    </g>
  </g>
</svg>
